<?xml version="1.0" encoding="utf-8"?>
<!-- Generator: Adobe Illustrator 15.0.0, SVG Export Plug-In . SVG Version: 6.00 Build 0)  -->
<!DOCTYPE svg PUBLIC "-//W3C//DTD SVG 1.1//EN" "http://www.w3.org/Graphics/SVG/1.1/DTD/svg11.dtd">
<svg version="1.1" id="Layer_1" xmlns="http://www.w3.org/2000/svg" xmlns:xlink="http://www.w3.org/1999/xlink" x="0px" y="0px"
	 width="712.712px" height="231.356px" viewBox="0 0 712.712 231.356" enable-background="new 0 0 712.712 231.356"
	 xml:space="preserve">
<path fill="#FFFFFF" d="M72.12,134.527l2.439-1.763c3.071-1.807,5.239-2.71,6.506-2.71c2.799,0,5.828,2.53,9.081,7.59
	c1.986,3.164,2.982,5.692,2.982,7.59s-0.61,3.479-1.83,4.744c-1.22,1.266-2.643,2.395-4.27,3.388
	c-1.626,0.995-3.185,1.944-4.676,2.847c-1.491,0.904-4.541,2.08-9.149,3.523c-4.608,1.444-9.06,2.169-13.35,2.169
	c-4.292,0-8.63-0.565-13.011-1.694c-4.384-1.129-8.901-3.026-13.554-5.692c-4.655-2.664-8.833-5.917-12.537-9.759
	c-3.706-3.84-6.755-8.764-9.148-14.772c-2.395-6.009-3.592-12.537-3.592-19.586c0-7.047,1.173-13.438,3.524-19.178
	c2.349-5.736,5.354-10.48,9.013-14.23c3.66-3.749,7.838-6.89,12.537-9.42c8.854-4.88,17.755-7.319,26.7-7.319
	c4.246,0,8.56,0.657,12.944,1.966c4.381,1.311,7.702,2.643,9.962,3.998l3.252,1.896c1.626,0.996,2.891,1.809,3.795,2.44
	c2.349,1.897,3.524,4.045,3.524,6.438c0,2.395-0.949,4.902-2.846,7.521c-3.524,4.879-6.688,7.318-9.487,7.318
	c-1.626,0-3.931-0.992-6.912-2.98c-3.795-3.071-8.856-4.609-15.18-4.609c-5.875,0-11.656,2.033-17.348,6.1
	c-2.711,1.988-4.971,4.79-6.777,8.403c-1.809,3.614-2.711,7.704-2.711,12.266c0,4.563,0.902,8.653,2.711,12.267
	c1.806,3.614,4.11,6.461,6.912,8.538c5.51,3.977,11.25,5.963,17.213,5.963c2.8,0,5.443-0.359,7.929-1.084
	C69.25,135.973,71.036,135.251,72.12,134.527z"/>
<path fill="#FFFFFF" d="M99.269,67.437c0-2.077,0.068-3.636,0.203-4.677c0.136-1.037,0.519-2.236,1.152-3.592
	c1.264-2.439,4.788-3.658,10.572-3.658c5.51,0,8.945,1.219,10.3,3.658c0.722,1.355,1.152,2.576,1.288,3.66
	c0.136,1.084,0.204,2.666,0.204,4.744v62.752c0,3.253,0.271,5.31,0.813,6.167c0.542,0.859,1.739,1.287,3.592,1.287
	c1.851,0,3.094,0.068,3.727,0.204c0.631,0.136,1.4,0.521,2.304,1.151c1.807,1.176,2.711,4.385,2.711,9.623
	c0,5.693-0.904,9.172-2.711,10.437c-2.351,1.626-7.952,1.897-16.806,0.813c-6.959-0.902-11.476-3.207-13.554-6.912
	c-2.531-4.426-3.795-11.475-3.795-21.144V67.437z"/>
<path fill="#FFFFFF" d="M165.883,75.908c-0.678,1.312-1.876,2.236-3.592,2.778c-1.717,0.543-3.998,0.813-6.844,0.813
	s-5.129-0.271-6.845-0.813c-1.717-0.542-2.914-1.49-3.591-2.846c-0.678-1.355-1.084-2.553-1.22-3.592
	c-0.135-1.038-0.203-2.597-0.203-4.676c0-2.078,0.068-3.637,0.203-4.676c0.136-1.038,0.519-2.19,1.152-3.457
	c1.264-2.439,4.788-3.659,10.572-3.659c5.692,0,9.125,1.22,10.3,3.659c0.722,1.355,1.152,2.555,1.288,3.592
	c0.136,1.04,0.204,2.599,0.204,4.676c0,2.08-0.068,3.639-0.204,4.676C166.968,73.424,166.561,74.599,165.883,75.908z
	 M143.588,101.049c0-2.077,0.068-3.636,0.203-4.676c0.136-1.037,0.519-2.236,1.152-3.592c1.264-2.349,4.788-3.523,10.572-3.523
	c4.337,0,7.408,0.769,9.216,2.304c1.535,1.267,2.349,3.208,2.439,5.828c0.089,0.904,0.136,2.215,0.136,3.931v47.437
	c0,2.08-0.068,3.639-0.204,4.676c-0.135,1.041-0.565,2.236-1.288,3.592c-1.175,2.352-4.655,3.524-10.436,3.524
	c-5.692,0-9.172-1.22-10.436-3.659c-0.633-1.355-1.017-2.529-1.152-3.524c-0.135-0.993-0.203-2.575-0.203-4.743V101.049z"/>
<path fill="#FFFFFF" d="M200.511,124.836c0,3.841,1.264,6.822,3.795,8.944c2.529,2.125,5.218,3.186,8.064,3.186
	s5.51-0.834,7.997-2.508c2.484-1.671,4.494-2.507,6.031-2.507c2.71,0,6.008,2.396,9.894,7.183c2.078,2.622,3.117,4.971,3.117,7.049
	c0,3.435-2.486,6.641-7.454,9.623c-5.15,3.614-11.476,5.421-18.975,5.421c-8.403,0-16.491-3.026-24.261-9.081
	c-3.706-2.891-6.732-6.754-9.081-11.588c-2.351-4.833-3.524-10.165-3.524-15.993s1.173-11.113,3.524-15.857
	c2.349-4.744,5.375-8.561,9.081-11.453c7.499-5.963,15.496-8.945,23.99-8.945c3.433,0,6.777,0.475,10.029,1.424
	c3.253,0.948,5.646,1.875,7.184,2.777l2.168,1.355c1.626,1.084,2.891,1.944,3.795,2.576c2.349,1.809,3.524,3.862,3.524,6.166
	c0,2.305-0.949,4.902-2.846,7.793c-3.253,4.971-6.37,7.455-9.352,7.455c-1.717,0-4.157-0.993-7.319-2.982
	c-1.626-1.535-3.954-2.304-6.98-2.304c-3.028,0-5.851,1.085-8.471,3.253C201.82,117.991,200.511,120.997,200.511,124.836z"/>
<path fill="#FFFFFF" d="M287.032,124.768l18.026,14.909c2.257,1.896,3.681,3.344,4.27,4.337c0.586,0.995,0.881,1.944,0.881,2.847
	c0,2.168-1.402,5.105-4.202,8.809c-3.073,3.795-5.784,5.693-8.132,5.693c-1.988,0-4.744-1.309-8.268-3.931l-1.355-0.948
	c-2.08-1.716-5.286-4.721-9.623-9.014c-4.337-4.291-7.637-7.34-9.894-9.148v10.436c0,2.08-0.068,3.639-0.204,4.676
	c-0.135,1.041-0.565,2.236-1.288,3.592c-1.175,2.352-4.655,3.524-10.436,3.524c-5.692,0-9.172-1.22-10.436-3.659
	c-0.633-1.355-1.017-2.553-1.152-3.592c-0.135-1.037-0.203-2.597-0.203-4.676V67.437c0-2.077,0.068-3.636,0.203-4.677
	c0.136-1.037,0.519-2.236,1.152-3.592c1.264-2.439,4.788-3.658,10.572-3.658c4.337,0,7.408,0.768,9.216,2.304
	c1.535,1.267,2.349,3.253,2.439,5.964c0.089,0.813,0.136,2.079,0.136,3.795v42.965c1.626-1.355,4.087-3.66,7.387-6.913
	c3.297-3.253,5.76-5.557,7.386-6.912l1.626-1.085c3.162-2.439,5.873-3.658,8.132-3.658c2.257,0,4.856,1.829,7.793,5.488
	c2.935,3.66,4.405,6.529,4.405,8.607c0,2.079-1.673,4.519-5.015,7.318L287.032,124.768z"/>
<path fill="#FFFFFF" d="M379.436,65.336c0.858-1.58,2.146-2.644,3.862-3.186c1.716-0.542,3.863-0.813,6.438-0.813
	s4.652,0.227,6.234,0.678c1.58,0.453,2.755,0.994,3.524,1.625c0.766,0.634,1.332,1.582,1.693,2.848
	c0.543,1.445,0.813,3.75,0.813,6.912v75.222c0,2.168-0.067,3.75-0.203,4.743c-0.136,0.995-0.565,2.169-1.288,3.524
	c-1.266,2.439-4.79,3.659-10.571,3.659c-3.524,0-5.964-0.271-7.319-0.813c-1.355-0.542-2.486-1.399-3.388-2.574
	c-20.331-27.107-33.704-44.815-40.119-53.13v44.591c0,2.168-0.067,3.75-0.203,4.743c-0.136,0.995-0.565,2.169-1.288,3.524
	c-1.267,2.439-4.791,3.659-10.572,3.659c-5.604,0-9.036-1.22-10.301-3.659c-0.724-1.355-1.152-2.575-1.288-3.66
	c-0.135-1.084-0.203-2.664-0.203-4.743V72.858c0-3.433,0.428-5.939,1.288-7.521c0.858-1.58,2.145-2.644,3.863-3.186
	c1.715-0.542,3.931-0.813,6.641-0.813c2.711,0,4.856,0.249,6.438,0.744c1.58,0.498,2.688,1.064,3.321,1.695
	c0.36,0.271,1.399,1.445,3.117,3.523c19.064,25.934,31.804,43.056,38.22,51.367V72.858
	C378.147,69.425,378.575,66.918,379.436,65.336z"/>
<path fill="#FFFFFF" d="M471.604,134.527l2.439-1.763c3.072-1.807,5.24-2.71,6.506-2.71c2.801,0,5.828,2.53,9.082,7.59
	c1.986,3.164,2.98,5.692,2.98,7.59s-0.609,3.479-1.828,4.744c-1.221,1.266-2.645,2.395-4.27,3.388
	c-1.627,0.995-3.186,1.944-4.676,2.847c-1.492,0.904-4.541,2.08-9.148,3.523c-4.609,1.444-9.061,2.169-13.352,2.169
	c-4.292,0-8.629-0.565-13.011-1.694c-4.384-1.129-8.897-3.026-13.544-5.692c-4.654-2.664-8.834-5.917-12.537-9.759
	c-3.705-3.84-6.756-8.764-9.148-14.772c-2.395-6.009-3.592-12.537-3.592-19.586c0-7.047,1.174-13.438,3.523-19.178
	c2.35-5.736,5.354-10.48,9.014-14.23c3.66-3.749,7.838-6.89,12.537-9.42c8.844-4.88,17.745-7.319,26.69-7.319
	c4.246,0,8.56,0.657,12.944,1.966c4.381,1.311,7.701,2.643,9.961,3.998l3.254,1.896c1.625,0.996,2.891,1.809,3.795,2.44
	c2.348,1.897,3.523,4.045,3.523,6.438c0,2.395-0.949,4.902-2.846,7.521c-3.525,4.879-6.689,7.318-9.488,7.318
	c-1.627,0-3.93-0.992-6.912-2.98c-3.795-3.071-8.856-4.609-15.18-4.609c-5.875,0-11.656,2.033-17.349,6.1
	c-2.711,1.988-4.962,4.79-6.767,8.403c-1.809,3.614-2.711,7.704-2.711,12.266c0,4.563,0.902,8.653,2.711,12.267
	c1.805,3.614,4.1,6.461,6.902,8.538c5.51,3.977,11.249,5.963,17.213,5.963c2.799,0,5.442-0.359,7.928-1.084
	C468.735,135.973,470.521,135.251,471.604,134.527z"/>
<path fill="#FFFFFF" d="M501.958,96.402c6.815-6.329,14.604-9.493,23.367-9.493c8.765,0,16.512,3.145,23.249,9.433
	c6.733,6.288,10.101,14.301,10.101,24.037c0,6.736-1.745,12.719-5.233,17.953c-3.489,5.233-7.729,9.089-12.718,11.563
	c-4.992,2.476-10.165,3.712-15.52,3.712s-10.55-1.317-15.58-3.955c-5.032-2.636-9.27-6.531-12.718-11.685
	c-3.45-5.152-5.173-10.974-5.173-17.466C491.733,110.763,495.142,102.731,501.958,96.402z M517.171,129.203
	c2.596,1.99,5.234,2.982,7.912,2.982c2.677,0,5.355-1.014,8.033-3.043c2.677-2.027,4.017-5.03,4.017-9.007
	c0-3.975-1.26-6.938-3.774-8.885c-2.516-1.948-5.233-2.921-8.154-2.921c-2.922,0-5.641,1.015-8.154,3.043
	c-2.517,2.029-3.774,5.011-3.774,8.944C513.275,124.255,514.573,127.215,517.171,129.203z"/>
<path fill="#FFFFFF" d="M574.984,96.402c6.816-6.329,14.605-9.493,23.368-9.493c8.765,0,16.512,3.145,23.248,9.433
	c6.733,6.288,10.102,14.301,10.102,24.037c0,6.736-1.746,12.719-5.234,17.953c-3.488,5.233-7.728,9.089-12.718,11.563
	c-4.991,2.476-10.164,3.712-15.519,3.712s-10.55-1.317-15.58-3.955c-5.032-2.636-9.27-6.531-12.718-11.685
	c-3.45-5.152-5.173-10.974-5.173-17.466C564.761,110.763,568.169,102.731,574.984,96.402z M590.198,129.203
	c2.596,1.99,5.233,2.982,7.912,2.982c2.677,0,5.354-1.014,8.033-3.043c2.676-2.027,4.017-5.03,4.017-9.007
	c0-3.975-1.26-6.938-3.774-8.885c-2.516-1.948-5.234-2.921-8.154-2.921c-2.922,0-5.641,1.015-8.154,3.043
	c-2.517,2.029-3.774,5.011-3.774,8.944C586.303,124.255,587.601,127.215,590.198,129.203z"/>
<path fill="#FFFFFF" d="M680.513,124.768l18.025,14.909c2.258,1.896,3.682,3.344,4.27,4.337c0.588,0.995,0.881,1.944,0.881,2.847
	c0,2.168-1.4,5.105-4.201,8.809c-3.072,3.795-5.783,5.693-8.131,5.693c-1.99,0-4.744-1.309-8.268-3.931l-1.355-0.948
	c-2.08-1.716-5.287-4.721-9.623-9.014c-4.338-4.291-7.637-7.34-9.895-9.148v10.436c0,2.08-0.068,3.639-0.203,4.676
	c-0.137,1.041-0.566,2.236-1.287,3.592c-1.176,2.352-4.656,3.524-10.438,3.524c-5.691,0-9.172-1.22-10.436-3.659
	c-0.633-1.355-1.018-2.553-1.152-3.592c-0.135-1.037-0.203-2.597-0.203-4.676V67.437c0-2.077,0.068-3.636,0.203-4.677
	c0.135-1.037,0.52-2.236,1.152-3.592c1.264-2.439,4.789-3.658,10.572-3.658c4.336,0,7.406,0.768,9.215,2.304
	c1.537,1.267,2.35,3.253,2.441,5.964c0.088,0.813,0.135,2.079,0.135,3.795v42.965c1.627-1.355,4.088-3.66,7.387-6.913
	c3.297-3.253,5.76-5.557,7.387-6.912l1.627-1.085c3.16-2.439,5.871-3.658,8.131-3.658c2.258,0,4.855,1.829,7.793,5.488
	c2.936,3.66,4.406,6.529,4.406,8.607c0,2.079-1.674,4.519-5.016,7.318L680.513,124.768z"/>
<polygon fill="#B2A232" points="562.479,173.66 538.573,164.297 562.295,142.715 586.388,164.297 "/>
<path fill="#E63427" d="M562.48,178.264"/>
<polygon fill="#E5DA29" points="562.295,142.715 538.573,164.297 586.388,164.297 "/>
<path fill="#871719" d="M575.057,179.069c6.436,15.566,8.893,41.589,0.854,43.245c-8.039,1.656-12.814-9.746-12.814-9.746
	c-12.272,1.796-15.43-9.729-15.43-9.729c-2.993-12.095,2.47-24.694,2.47-24.694l11.986,4.667L575.057,179.069z"/>
<circle fill="#010101" cx="525.204" cy="120.257" r="13.369"/>
<circle fill="#010101" cx="598.231" cy="120.257" r="13.369"/>
<path fill="#FFFFFF" d="M589.573,14.815c-5.177,0-9.864,2.098-13.262,5.485c-3.281-5.477-9.269-9.154-16.116-9.154
	c-6.882,0-12.895,3.719-16.164,9.24c-3.404-3.438-8.125-5.571-13.346-5.571c-10.371,0-18.778,8.409-18.778,18.78
	s8.407,18.778,18.778,18.778c0.045,0,0.089-0.003,0.134-0.003v28.555h58.754V52.374c10.371,0,18.777-8.407,18.777-18.778
	S599.944,14.815,589.573,14.815z"/>
</svg>
